<svg width="38" height="103" viewBox="0 0 38 103" fill="none" xmlns="http://www.w3.org/2000/svg">
<path fill-rule="evenodd" clip-rule="evenodd" d="M48.4404 28.9194C52.4172 26.0085 55 21.3059 55 16C55 7.16345 47.8365 0 39 0C30.1635 0 23 7.16345 23 16C23 19.1304 23.8989 22.0508 25.4528 24.5171C20.5769 27.4677 17.2571 32.7311 17.0143 38.7866C7.21411 41.4209 0 50.368 0 61C0 71.3857 6.88379 80.1638 16.3376 83.0203C15.4797 84.8336 15 86.8608 15 89C15 96.7319 21.2681 103 29 103C36.7319 103 43 96.7319 43 89C43 84.7391 41.0964 80.9229 38.0935 78.3551C42.9379 74.1384 46 67.9268 46 61C46 58.4294 45.5782 55.9574 44.8003 53.6492C49.1643 50.4668 52 45.3146 52 39.5C52 35.5242 50.6741 31.8579 48.4404 28.9194Z" fill="white"/>
</svg>
