<svg width="212" height="649" viewBox="0 0 212 649" fill="none" xmlns="http://www.w3.org/2000/svg">
<path fill-rule="evenodd" clip-rule="evenodd" d="M242 55.5C242 74.475 232.478 91.2259 217.951 101.235C243.549 121.278 260 152.468 260 187.5C260 225.792 240.345 259.494 210.573 279.065C212.155 284.774 213 290.788 213 297C213 300.317 212.759 303.578 212.293 306.765C242.367 321.896 263 353.039 263 389C263 424.52 242.87 455.339 213.397 470.67C225.587 484.293 233 502.281 233 522C233 539.554 227.126 555.736 217.236 568.688C231.836 575.267 242 589.947 242 607C242 630.196 223.196 649 200 649C176.804 649 158 630.196 158 607C158 604.247 158.265 601.556 158.771 598.951C157.851 598.984 156.927 599 156 599C113.474 599 79 564.526 79 522C79 496.058 91.8286 473.113 111.488 459.162C91.6123 442.286 79 417.116 79 389C79 370.554 84.4288 353.375 93.7759 338.976C89.2456 333.346 85.6068 326.97 83.0739 320.059C77.9244 321.327 72.5408 322 67 322C29.9969 322 0 292.003 0 255C0 227.162 16.978 203.289 41.1443 193.171C41.0485 191.293 41 189.402 41 187.5C41 131.881 82.4678 85.947 136.173 78.9288C132.854 71.8109 131 63.8719 131 55.5C131 24.8482 155.848 0 186.5 0C217.152 0 242 24.8482 242 55.5Z" fill="white"/>
</svg>
