<svg width="451" height="659" viewBox="0 0 451 659" fill="none" xmlns="http://www.w3.org/2000/svg">
<path fill-rule="evenodd" clip-rule="evenodd" d="M451 56C451 129.454 391.454 189 318 189C298.902 189 280.744 184.975 264.328 177.726C241.214 238.358 183.056 281.693 114.612 282.971C118.096 292.32 120 302.437 120 313C120 330.413 114.825 346.617 105.929 360.158C107.773 360.053 109.63 360 111.5 360C164.795 360 208 403.205 208 456.5C208 509.795 164.795 553 111.5 553C109.408 553 107.331 552.933 105.271 552.802C108.964 561.806 111 571.665 111 582C111 624.526 76.5259 659 34 659C-8.52593 659 -43 624.526 -43 582C-43 541.431 -11.6264 508.191 28.1816 505.217C19.803 490.918 15 474.27 15 456.5C15 434.955 22.0606 415.059 33.9941 399C-13.4997 398.997 -52 360.495 -52 313C-52 278.983 -32.2504 249.58 -3.59212 235.629C-33.4851 206.002 -52 164.913 -52 119.5C-52 29.2014 21.2014 -44 111.5 -44C146.358 -44 178.668 -33.0916 205.203 -14.5022C228.714 -52.0385 270.442 -77 318 -77C391.454 -77 451 -17.4539 451 56Z" fill="white"/>
</svg>
