<svg width="93" height="55" viewBox="0 0 93 55" fill="none" xmlns="http://www.w3.org/2000/svg">
<path fill-rule="evenodd" clip-rule="evenodd" d="M74 15C84.4934 15 93 6.49341 93 -4C93 -14.4934 84.4934 -23 74 -23C63.5066 -23 55 -14.4934 55 -4C55 -3.80518 55.0029 -3.61104 55.0088 -3.41763C53.7388 -3.79651 52.3931 -4 51 -4C47.1854 -4 43.7271 -2.47437 41.202 0H34.3352C32.1404 -8.06768 24.763 -14 16 -14C7.23703 -14 -0.140366 -8.06768 -2.33524 0H-13V4.16159C-22.4127 8.22785 -29 17.5946 -29 28.5C-29 43.1355 -17.1355 55 -2.5 55C12.1355 55 24 43.1355 24 28.5C24 27.5632 23.9514 26.6377 23.8565 25.7259C25.3914 26.5393 27.1419 27 29 27C34.2735 27 38.6802 23.2892 39.7514 18.3363C42.3025 21.7729 46.3912 24 51 24C57.8419 24 63.5375 19.0921 64.7581 12.6048C67.4937 14.1306 70.6453 15 74 15Z" fill="white"/>
</svg>
