<svg width="16" height="16" viewBox="0 0 16 16" fill="none" xmlns="http://www.w3.org/2000/svg">
<circle cx="8" cy="8" r="7.5" stroke="#DC949B"/>
<circle cx="2.5" cy="4.5" r="0.5" fill="#DC949B"/>
<circle cx="4.5" cy="2.5" r="0.5" fill="#DC949B"/>
<circle cx="7.5" cy="1.5" r="0.5" fill="#DC949B"/>
<path d="M11.0077 1.91205C11.0077 2.18819 10.7839 2.41205 10.5077 2.41205C10.2316 2.41205 10.0077 2.18819 10.0077 1.91205C10.0077 1.63591 10.2316 1.41205 10.5077 1.41205C10.7839 1.41205 11.0077 1.63591 11.0077 1.91205Z" fill="#DC949B"/>
<path d="M13.2686 3.54606C13.2686 3.8222 13.0448 4.04606 12.7686 4.04606C12.4925 4.04606 12.2686 3.8222 12.2686 3.54606C12.2686 3.26992 12.4925 3.04606 12.7686 3.04606C13.0448 3.04606 13.2686 3.26992 13.2686 3.54606Z" fill="#DC949B"/>
<path d="M14.615 5.68091C14.615 5.95705 14.3911 6.18091 14.115 6.18091C13.8388 6.18091 13.615 5.95705 13.615 5.68091C13.615 5.40477 13.8388 5.18091 14.115 5.18091C14.3911 5.18091 14.615 5.40477 14.615 5.68091Z" fill="#DC949B"/>
<circle cx="14.5" cy="8.5" r="0.5" fill="#DC949B"/>
<circle cx="13.5" cy="11.5" r="0.5" fill="#DC949B"/>
<circle cx="11.5" cy="13.5" r="0.5" fill="#DC949B"/>
<path d="M9.98608 14.3823C9.98608 14.6585 9.76223 14.8823 9.48608 14.8823C9.20994 14.8823 8.98608 14.6585 8.98608 14.3823C8.98608 14.1062 9.20994 13.8823 9.48608 13.8823C9.76223 13.8823 9.98608 14.1062 9.98608 14.3823Z" fill="#DC949B"/>
<path d="M7.5 14.5C7.5 14.7761 7.27614 15 7 15C6.72386 15 6.5 14.7761 6.5 14.5C6.5 14.2239 6.72386 14 7 14C7.27614 14 7.5 14.2239 7.5 14.5Z" fill="#DC949B"/>
<circle cx="4.5" cy="13.5" r="0.5" fill="#DC949B"/>
<circle cx="2.5" cy="11.5" r="0.5" fill="#DC949B"/>
<path d="M2.12069 9.48534C2.12069 9.76148 1.89683 9.98534 1.62069 9.98534C1.34455 9.98534 1.12069 9.76148 1.12069 9.48534C1.12069 9.20919 1.34455 8.98534 1.62069 8.98534C1.89683 8.98534 2.12069 9.20919 2.12069 9.48534Z" fill="#DC949B"/>
<path d="M2 7C2 7.27614 1.77614 7.5 1.5 7.5C1.22386 7.5 1 7.27614 1 7C1 6.72386 1.22386 6.5 1.5 6.5C1.77614 6.5 2 6.72386 2 7Z" fill="#DC949B"/>
</svg>
